<svg>

	<symbol id="i-home" xmlns="http://www.w3.org/2000/svg" viewBox="0 0 32 32" fill="none" stroke="currentcolor" stroke-linecap="round" stroke-linejoin="round" >
		<path d="M12 20 L12 30 4 30 4 12 16 2 28 12 28 30 20 30 20 20 Z" />
	</symbol>

	<symbol id="i-user" xmlns="http://www.w3.org/2000/svg" viewBox="0 0 32 32" fill="none" stroke="currentcolor" stroke-linecap="round" stroke-linejoin="round" >
		<path d="M22 11 C22 16 19 20 16 20 13 20 10 16 10 11 10 6 12 3 16 3 20 3 22 6 22 11 Z M4 30 L28 30 C28 21 22 20 16 20 10 20 4 21 4 30 Z" />
	</symbol>

	<symbol id="i-info" xmlns="http://www.w3.org/2000/svg" viewBox="0 0 32 32" fill="none" stroke="currentcolor" stroke-linecap="round" stroke-linejoin="round" >
	    <path d="M16 14 L16 23 M16 8 L16 10" />
		<circle cx="16" cy="16" r="14" />
	</symbol>

	<symbol id="i-menu" xmlns="http://www.w3.org/2000/svg" viewBox="0 0 32 32" fill="none" stroke="currentcolor" stroke-linecap="round" stroke-linejoin="round" >
		<path d="M4 8 L28 8 M4 16 L28 16 M4 24 L28 24" />
	</symbol>

	<symbol id="i-close" xmlns="http://www.w3.org/2000/svg" viewBox="0 0 32 32" fill="none" stroke="currentcolor" stroke-linecap="round" stroke-linejoin="round" >
		<path d="M2 30 L30 2 M30 30 L2 2" />
	</symbol>

	<symbol id="i-lock" xmlns="http://www.w3.org/2000/svg" viewBox="0 0 32 32" fill="none" stroke="currentcolor" stroke-linecap="round" stroke-linejoin="round" >
		<path d="M5 15 L5 30 27 30 27 15 Z M9 15 C9 9 9 5 16 5 23 5 23 9 23 15 M16 20 L16 23" />
		<circle cx="16" cy="24" r="1" />
	</symbol>

	<symbol id="i-alert" xmlns="http://www.w3.org/2000/svg" viewBox="0 0 32 32" fill="none" stroke="currentcolor" stroke-linecap="round" stroke-linejoin="round" > -->
		<path d="M16 3 L30 29 2 29 Z M16 11 L16 19 M16 23 L16 25" />
	</symbol>

	<symbol id="i-photo" xmlns="http://www.w3.org/2000/svg" viewBox="0 0 32 32" fill="none" stroke="currentcolor" stroke-linecap="round" stroke-linejoin="round" >
	    <path d="M20 24 L12 16 2 26 2 2 30 2 30 24 M16 20 L22 14 30 22 30 30 2 30 2 24" />
    	<circle cx="10" cy="9" r="3" />
	</symbol>

	<symbol id="i-compose" xmlns="http://www.w3.org/2000/svg" viewBox="0 0 32 32" fill="none" stroke="currentcolor" stroke-linecap="round" stroke-linejoin="round" >
		<path d="M27 15 L27 30 2 30 2 5 17 5 M30 6 L26 2 9 19 7 25 13 23 Z M22 6 L26 10 Z M9 19 L13 23 Z" />
	</symbol>

	<symbol id="i-edit" xmlns="http://www.w3.org/2000/svg" viewBox="0 0 32 32" fill="none" stroke="currentcolor" stroke-linecap="round" stroke-linejoin="round" >
		<path d="M30 7 L25 2 5 22 3 29 10 27 Z M21 6 L26 11 Z M5 22 L10 27 Z" />
	</symbol>

	<symbol id="i-github" xmlns="http://www.w3.org/2000/svg" viewBox="0 0 64 64" fill="none" stroke="currentcolor" stroke-linecap="round" stroke-linejoin="round" >
		<path stroke-width="0" fill="currentColor" d="M32 0 C14 0 0 14 0 32 0 53 19 62 22 62 24 62 24 61 24 60 L24 55 C17 57 14 53 13 50 13 50 13 49 11 47 10 46 6 44 10 44 13 44 15 48 15 48 18 52 22 51 24 50 24 48 26 46 26 46 18 45 12 42 12 31 12 27 13 24 15 22 15 22 13 18 15 13 15 13 20 13 24 17 27 15 37 15 40 17 44 13 49 13 49 13 51 20 49 22 49 22 51 24 52 27 52 31 52 42 45 45 38 46 39 47 40 49 40 52 L40 60 C40 61 40 62 42 62 45 62 64 53 64 32 64 14 50 0 32 0 Z" />
	</symbol>

	<symbol id="i-star" xmlns="http://www.w3.org/2000/svg" viewBox="0 0 32 32" fill="none" stroke="currentcolor" stroke-linecap="round" stroke-linejoin="round" >
		<path d="M16 2 L20 12 30 12 22 19 25 30 16 23 7 30 10 19 2 12 12 12 Z" />
	</symbol>

	<symbol id="i-link" xmlns="http://www.w3.org/2000/svg" viewBox="0 0 32 32" fill="none" stroke="currentcolor" stroke-linecap="round" stroke-linejoin="round" >
		<path d="M18 8 C18 8 24 2 27 5 30 8 29 12 24 16 19 20 16 21 14 17 M14 24 C14 24 8 30 5 27 2 24 3 20 8 16 13 12 16 11 18 15" />
	</symbol>

	<symbol id="i-mail" xmlns="http://www.w3.org/2000/svg" viewBox="0 0 32 32" fill="none" stroke="currentcolor" stroke-linecap="round" stroke-linejoin="round" >
		<path d="M2 26 L30 26 30 6 2 6 Z M2 6 L16 16 30 6" />
	</symbol>

	<symbol id="i-bell" xmlns="http://www.w3.org/2000/svg" viewBox="0 0 32 32" fill="none" stroke="currentcolor" stroke-linecap="round" stroke-linejoin="round" >
		<path d="M8 17 C8 12 9 6 16 6 23 6 24 12 24 17 24 22 27 25 27 25 L5 25 C5 25 8 22 8 17 Z M20 25 C20 25 20 29 16 29 12 29 12 25 12 25 M16 3 L16 6" />
	</symbol>

	<symbol id="i-bag" xmlns="http://www.w3.org/2000/svg" viewBox="0 0 32 32" fill="none" stroke="currentcolor" stroke-linecap="round" stroke-linejoin="round" >
		<path d="M5 9 L5 29 27 29 27 9 Z M10 9 C10 9 10 3 16 3 22 3 22 9 22 9" />
	</symbol>

	<symbol id="i-heart" xmlns="http://www.w3.org/2000/svg" viewBox="0 0 32 32" fill="none" stroke="currentcolor" stroke-linecap="round" stroke-linejoin="round" >
		<path d="M4 16 C1 12 2 6 7 4 12 2 15 6 16 8 17 6 21 2 26 4 31 6 31 12 28 16 25 20 16 28 16 28 16 28 7 20 4 16 Z" />
	</symbol>

	<symbol id="i-send" xmlns="http://www.w3.org/2000/svg" viewBox="0 0 32 32" fill="none" stroke="currentcolor" stroke-linecap="round" stroke-linejoin="round" >
		<path d="M2 16 L30 2 16 30 12 20 Z M30 2 L12 20" />
	</symbol>

	<symbol id="i-search" xmlns="http://www.w3.org/2000/svg" viewBox="0 0 32 32" fill="none" stroke="currentcolor" stroke-linecap="round" stroke-linejoin="round" >
		<circle cx="14" cy="14" r="12" />
    	<path d="M23 23 L30 30"  />
	</symbol>
	
	<symbol id="i-eye" xmlns="http://www.w3.org/2000/svg" viewBox="0 0 32 32" fill="none" stroke="currentcolor" stroke-linecap="round" stroke-linejoin="round" >
		<circle cx="17" cy="15" r="1" />
		<circle cx="16" cy="16" r="6" />
		<path d="M2 16 C2 16 7 6 16 6 25 6 30 16 30 16 30 16 25 26 16 26 7 26 2 16 2 16 Z" />
	</symbol>


	<symbol id="i-blank" xmlns="http://www.w3.org/2000/svg" viewBox="0 0 32 32" fill="none" stroke="currentcolor" stroke-linecap="round" stroke-linejoin="round" >
	</symbol>

</svg>