<svg>

	<symbol id="i-home" xmlns="http://www.w3.org/2000/svg" viewBox="0 0 32 32" fill="none" stroke="currentcolor" stroke-linecap="round" stroke-linejoin="round" >
		<path d="M12 20 L12 30 4 30 4 12 16 2 28 12 28 30 20 30 20 20 Z" />
	</symbol>

	<symbol id="i-user" xmlns="http://www.w3.org/2000/svg" viewBox="0 0 32 32" fill="none" stroke="currentcolor" stroke-linecap="round" stroke-linejoin="round" >
		<path d="M22 11 C22 16 19 20 16 20 13 20 10 16 10 11 10 6 12 3 16 3 20 3 22 6 22 11 Z M4 30 L28 30 C28 21 22 20 16 20 10 20 4 21 4 30 Z" />
	</symbol>

	<symbol id="i-info" xmlns="http://www.w3.org/2000/svg" viewBox="0 0 32 32" fill="none" stroke="currentcolor" stroke-linecap="round" stroke-linejoin="round" >
	    <path d="M16 14 L16 23 M16 8 L16 10" />
		<circle cx="16" cy="16" r="14" />
	</symbol>

	<symbol id="i-menu" xmlns="http://www.w3.org/2000/svg" viewBox="0 0 32 32" fill="none" stroke="currentcolor" stroke-linecap="round" stroke-linejoin="round" >
		<path d="M4 8 L28 8 M4 16 L28 16 M4 24 L28 24" />
	</symbol>

	<symbol id="i-close" xmlns="http://www.w3.org/2000/svg" viewBox="0 0 32 32" fill="none" stroke="currentcolor" stroke-linecap="round" stroke-linejoin="round" >
		<path d="M2 30 L30 2 M30 30 L2 2" />
	</symbol>

	<symbol id="i-lock" xmlns="http://www.w3.org/2000/svg" viewBox="0 0 32 32" fill="none" stroke="currentcolor" stroke-linecap="round" stroke-linejoin="round" >
		<path d="M5 15 L5 30 27 30 27 15 Z M9 15 C9 9 9 5 16 5 23 5 23 9 23 15 M16 20 L16 23" />
		<circle cx="16" cy="24" r="1" />
	</symbol>

	<!-- <symbol id="i-blank" xmlns="http://www.w3.org/2000/svg" viewBox="0 0 32 32" fill="none" stroke="currentcolor" stroke-linecap="round" stroke-linejoin="round" >

	</symbol> -->

	<symbol id="i-blank" xmlns="http://www.w3.org/2000/svg" viewBox="0 0 32 32" fill="none" stroke="currentcolor" stroke-linecap="round" stroke-linejoin="round" >

	</symbol>

</svg>